<svg width="56" height="56" viewBox="0 0 56 56" fill="none" xmlns="http://www.w3.org/2000/svg">
<path fill-rule="evenodd" clip-rule="evenodd" d="M51.8637 28.0384C52.6935 28.8683 52.6935 30.2137 51.8637 31.0436L50.064 32.8433C49.2341 33.6731 47.8886 33.6731 47.0588 32.8433C46.2289 32.0134 46.2289 30.6679 47.0588 29.8381L48.8584 28.0384C49.6883 27.2085 51.0338 27.2085 51.8637 28.0384Z" fill="#3A7326"/>
<path fill-rule="evenodd" clip-rule="evenodd" d="M32.7905 47.1115C33.6204 47.9414 33.6204 49.2868 32.7905 50.1167L30.9909 51.9164C30.161 52.7463 28.8155 52.7463 27.9857 51.9164C27.1558 51.0865 27.1558 49.741 27.9857 48.9112L29.7853 47.1115C30.6152 46.2816 31.9607 46.2816 32.7905 47.1115Z" fill="#3A7326"/>
<path fill-rule="evenodd" clip-rule="evenodd" d="M39.9247 23.0931C41.0983 23.0931 42.0497 24.0445 42.0497 25.2181V27.7632C42.0497 28.9368 41.0983 29.8882 39.9247 29.8882C38.751 29.8882 37.7997 28.9368 37.7997 27.7632V25.2181C37.7997 24.0445 38.751 23.0931 39.9247 23.0931Z" fill="#3A7326"/>
<path fill-rule="evenodd" clip-rule="evenodd" d="M27.9857 28.0384C28.8155 27.2085 30.161 27.2085 30.9909 28.0384L32.7905 29.8381C33.6204 30.6679 33.6204 32.0134 32.7905 32.8433C31.9607 33.6731 30.6152 33.6731 29.7853 32.8433L27.9857 31.0436C27.1558 30.2137 27.1558 28.8683 27.9857 28.0384Z" fill="#3A7326"/>
<path fill-rule="evenodd" clip-rule="evenodd" d="M23.0404 39.9774C23.0404 38.8038 23.9918 37.8524 25.1654 37.8524H27.7105C28.8841 37.8524 29.8355 38.8038 29.8355 39.9774C29.8355 41.151 28.8841 42.1024 27.7105 42.1024H25.1654C23.9918 42.1024 23.0404 41.151 23.0404 39.9774Z" fill="#3A7326"/>
<path fill-rule="evenodd" clip-rule="evenodd" d="M36.7227 36.7754C37.7118 35.7862 39.1749 35.4408 40.502 35.8832L53.1099 40.0858C54.4782 40.5419 55.4557 41.7528 55.6131 43.1864C55.7706 44.62 55.079 46.0141 53.8423 46.7562L49.5974 49.3032C49.4551 49.3886 49.336 49.5077 49.2506 49.65L46.7037 53.8948C45.9616 55.1316 44.5675 55.8232 43.1338 55.6659C41.7001 55.5085 40.4893 54.5309 40.0332 53.1626L35.8305 40.5547C35.3881 39.2276 35.7335 37.7645 36.7227 36.7754ZM40.2146 40.2673L50.6174 43.7349L47.4109 45.6588C46.6703 46.1031 46.0505 46.7229 45.6062 47.4634L43.6822 50.6701L40.2146 40.2673Z" fill="#3A7326"/>
<path fill-rule="evenodd" clip-rule="evenodd" d="M46.3974 46.4501C47.2272 45.6202 48.5727 45.6202 49.4026 46.4501L54.2082 51.2557C55.038 52.0856 55.038 53.431 54.2082 54.2609C53.3783 55.0908 52.0328 55.0908 51.203 54.2609L46.3974 49.4553C45.5675 48.6255 45.5675 47.28 46.3974 46.4501Z" fill="#3A7326"/>
<path fill-rule="evenodd" clip-rule="evenodd" d="M0.364258 13.88C0.364258 12.7064 1.31565 11.755 2.48926 11.755H53.5105C54.6841 11.755 55.6355 12.7064 55.6355 13.88C55.6355 15.0537 54.6841 16.005 53.5105 16.005H2.48926C1.31565 16.005 0.364258 15.0537 0.364258 13.88Z" fill="#3A7326"/>
<path fill-rule="evenodd" clip-rule="evenodd" d="M10.9928 4.66699C7.47003 4.66699 4.61426 7.52276 4.61426 11.0455V33.7216C4.61426 37.2444 7.47003 40.1002 10.9928 40.1002H13.8273C15.0009 40.1002 15.9523 41.0516 15.9523 42.2252C15.9523 43.3988 15.0009 44.3502 13.8273 44.3502H10.9928C5.12282 44.3502 0.364258 39.5916 0.364258 33.7216V11.0455C0.364258 5.17555 5.12282 0.416992 10.9928 0.416992H45.007C50.8769 0.416992 55.6355 5.17555 55.6355 11.0455V19.5491C55.6355 20.7227 54.6841 21.6741 53.5105 21.6741C52.3369 21.6741 51.3855 20.7227 51.3855 19.5491V11.0455C51.3855 7.52276 48.5297 4.66699 45.007 4.66699H10.9928Z" fill="#3A7326"/>
</svg>
