<svg width="19" height="18" viewBox="0 0 19 18" fill="none" xmlns="http://www.w3.org/2000/svg">
<path fill-rule="evenodd" clip-rule="evenodd" d="M15.8333 0.71936C16.1023 1.97193 17.0807 2.95039 18.3333 3.21936C17.0807 3.48833 16.1023 4.46679 15.8333 5.71936C15.5643 4.46679 14.5859 3.48833 13.3333 3.21936C14.5859 2.95039 15.5643 1.97193 15.8333 0.71936ZM7.56 0.88603C8.31958 4.42329 11.0827 7.18645 14.62 7.94603C11.0827 8.70561 8.31958 11.4688 7.56 15.006C6.80042 11.4688 4.03726 8.70561 0.5 7.94603C4.03726 7.18645 6.80042 4.42329 7.56 0.88603ZM18.3333 14.0527C16.6632 13.6941 15.3586 12.3895 15 10.7194C14.6413 12.3895 13.3367 13.6941 11.6666 14.0527C13.3367 14.4113 14.6413 15.7159 15 17.386C15.3586 15.7159 16.6632 14.4113 18.3333 14.0527Z" fill="#3A7326"/>
</svg>
